<svg width="48" height="48" viewBox="0 0 48 48" fill="none" xmlns="http://www.w3.org/2000/svg">
<rect width="48" height="48" rx="8" fill="#F3F9FF"/>
<path d="M19.6249 27.75C24.1132 27.75 27.7499 24.6719 27.7499 20.875C27.7499 17.0781 24.1132 14 19.6249 14C19.6249 14 11.4999 17.0781 11.4999 20.875C11.4999 22.3828 12.0742 23.7773 13.0468 24.9141C12.9101 25.2812 12.707 25.6055 12.4921 25.8789C12.3046 26.1211 12.1132 26.3086 11.9726 26.4375C11.9023 26.5 11.8437 26.5508 11.8046 26.582C11.7851 26.5977 11.7695 26.6094 11.7617 26.6133L11.7538 26.6211C11.539 26.7812 11.4453 27.0625 11.5312 27.3164C11.6171 27.5703 11.8554 27.75 12.1249 27.75C12.9765 27.75 13.8359 27.5312 14.5507 27.2617C14.9101 27.125 15.246 26.9727 15.539 26.8164C16.7382 27.4102 18.1328 27.75 19.6249 27.75ZM28.9999 20.875C28.9999 25.2617 25.1288 28.5664 20.5429 28.9609C21.4921 31.8672 24.6406 34 28.3749 34C29.8671 34 31.2617 33.6602 32.4648 33.0664C32.7578 33.2227 33.0898 33.375 33.4492 33.5117C34.164 33.7812 35.0234 34 35.8749 34C36.1445 34 36.3867 33.8242 36.4687 33.5664C36.5507 33.3086 36.4609 33.0273 36.2421 32.8672L36.2343 32.8594C36.2265 32.8516 36.2109 32.8438 36.1913 32.8281C36.1523 32.7969 36.0937 32.75 36.0234 32.6836C35.8828 32.5547 35.6913 32.3672 35.5038 32.125C35.289 31.8516 35.0859 31.5234 34.9492 31.1602C35.9218 30.0273 36.496 28.6328 36.496 27.1211C36.496 23.4961 33.1796 20.5234 28.9726 20.2656C28.9882 20.4648 28.996 20.668 28.996 20.8711L28.9999 20.875Z" fill="#2663EB"/>
</svg>
