<svg width="48" height="48" viewBox="0 0 48 48" fill="none" xmlns="http://www.w3.org/2000/svg">
<rect width="48" height="48" rx="8" fill="#F3F9FF"/>
<path d="M16.5 16.5C16.5 15.8086 15.9414 15.25 15.25 15.25C14.5586 15.25 14 15.8086 14 16.5V29.625C14 31.3516 15.3984 32.75 17.125 32.75H32.75C33.4414 32.75 34 32.1914 34 31.5C34 30.8086 33.4414 30.25 32.75 30.25H17.125C16.7812 30.25 16.5 29.9688 16.5 29.625V16.5ZM20.25 27.75H31.5C32.1914 27.75 32.75 27.1914 32.75 26.5V23.8359C32.75 23.5391 32.6445 23.25 32.4492 23.0234L29.8789 20.0234C29.4062 19.4688 28.5625 19.4375 28.0469 19.9531L27.2266 20.7734C26.8359 21.1641 26.1953 21.1328 25.8438 20.7109L24.3125 18.875C23.8203 18.2852 22.918 18.2734 22.4102 18.8516L19.3086 22.3984C19.1094 22.625 19 22.918 19 23.2227V26.5039C19 27.1953 19.5586 27.7539 20.25 27.7539V27.75Z" fill="#2663EB"/>
</svg>
