<svg width="48" height="48" viewBox="0 0 48 48" fill="none" xmlns="http://www.w3.org/2000/svg">
<rect width="48" height="48" rx="8" fill="#F3F9FF"/>
<path d="M17.75 16.5C17.75 15.1211 18.8711 14 20.25 14H34C35.3789 14 36.5 15.1211 36.5 16.5V27.75C36.5 29.1289 35.3789 30.25 34 30.25H24.6562C24.1953 29.2539 23.4883 28.3945 22.6094 27.75H26.5V26.5C26.5 25.8086 27.0586 25.25 27.75 25.25H30.25C30.9414 25.25 31.5 25.8086 31.5 26.5V27.75H34V16.5H20.25V18.418C19.5156 17.9922 18.6602 17.75 17.75 17.75V16.5ZM17.75 19C19.8197 19 21.5 20.6803 21.5 22.75C21.5 24.8197 19.8197 26.5 17.75 26.5C15.6803 26.5 14 24.8197 14 22.75C14 20.6803 15.6803 19 17.75 19ZM16.707 27.75H18.7891C21.668 27.75 24 30.082 24 32.957C24 33.5312 23.5352 34 22.957 34H12.543C11.9648 34 11.5 33.5352 11.5 32.957C11.5 30.082 13.832 27.75 16.707 27.75Z" fill="#2663EB"/>
</svg>
