<svg width="48" height="48" viewBox="0 0 48 48" fill="none" xmlns="http://www.w3.org/2000/svg">
<rect width="48" height="48" rx="8" fill="#F3F9FF"/>
<path d="M24 34C29.5191 34 34 29.5191 34 24C34 18.4808 29.5191 14 24 14C18.4808 14 14 18.4808 14 24C14 29.5191 18.4808 34 24 34ZM25.9805 26.6992L20.3438 28.8672C19.5859 29.1602 18.8398 28.4141 19.1328 27.6562L21.3008 22.0195C21.4297 21.6875 21.6875 21.4297 22.0195 21.3008L27.6562 19.1328C28.4141 18.8398 29.1602 19.5859 28.8672 20.3438L26.6992 25.9805C26.5742 26.3125 26.3125 26.5703 25.9805 26.6992ZM25.25 24C25.25 23.3101 24.6899 22.75 24 22.75C23.3101 22.75 22.75 23.3101 22.75 24C22.75 24.6899 23.3101 25.25 24 25.25C24.6899 25.25 25.25 24.6899 25.25 24Z" fill="#2663EB"/>
</svg>
