<svg width="139" height="44" viewBox="0 0 139 44" fill="none" xmlns="http://www.w3.org/2000/svg">
<path d="M131.795 23.9219H131.847L135.221 15.6104H138.986L130.932 33.8691H127.192L130.252 27.0381H129.494L124.186 15.6104H128.029L131.795 23.9219ZM60.6152 10C61.853 10 62.9345 10.2165 63.8584 10.6494C64.7996 11.065 65.5407 11.6714 66.0811 12.4678C66.6388 13.2642 66.9348 14.1991 66.9697 15.2725H63.1777C63.1603 14.8397 63.0381 14.4498 62.8115 14.1035C62.6024 13.7402 62.3062 13.4548 61.9229 13.2471C61.5393 13.0393 61.0775 12.9356 60.5371 12.9355C60.0839 12.9182 59.6737 12.9867 59.3076 13.1426C58.9417 13.2811 58.6455 13.4978 58.4189 13.792C58.2098 14.0863 58.1055 14.4673 58.1055 14.9346C58.1055 15.3499 58.201 15.7138 58.3926 16.0254C58.6018 16.3197 58.8987 16.5715 59.2822 16.7793C59.6656 16.987 60.1099 17.1947 60.6152 17.4023C61.1382 17.5928 61.7142 17.7922 62.3418 18C63.2655 18.3116 64.111 18.6834 64.8779 19.1162C65.645 19.5318 66.2548 20.0777 66.708 20.7529C67.1613 21.4282 67.3877 22.3115 67.3877 23.4023C67.3876 24.3545 67.1443 25.2462 66.6562 26.0771C66.1681 26.8909 65.4442 27.5487 64.4854 28.0508C63.5267 28.5528 62.3415 28.8037 60.9297 28.8037C59.6048 28.8037 58.419 28.5791 57.373 28.1289C56.3446 27.6788 55.5252 27.0209 54.915 26.1553C54.3224 25.2896 54.0175 24.2419 54 23.0127H57.7393C57.7567 23.5492 57.8869 24.0341 58.1309 24.4668C58.3924 24.8997 58.7588 25.2461 59.2295 25.5059C59.7002 25.7483 60.2672 25.8691 60.9297 25.8691C61.4699 25.8691 61.9409 25.7915 62.3418 25.6357C62.7598 25.4627 63.082 25.2115 63.3086 24.8828C63.5526 24.5539 63.6747 24.1467 63.6748 23.6621C63.6748 23.1427 63.5437 22.7096 63.2822 22.3633C63.0382 22.017 62.6895 21.7229 62.2363 21.4805C61.7832 21.2208 61.2694 20.9951 60.6943 20.8047C60.1191 20.6142 59.5172 20.4148 58.8896 20.207C57.4254 19.7049 56.31 19.0643 55.543 18.2852C54.776 17.4887 54.3916 16.4502 54.3916 15.1689C54.3916 14.0955 54.6538 13.1779 55.1768 12.416C55.7172 11.6368 56.458 11.0396 57.3994 10.624C58.3407 10.2085 59.4125 10 60.6152 10ZM85.6973 15.2988C86.9873 15.2988 88.1204 15.5758 89.0967 16.1299C90.0902 16.6839 90.8571 17.4456 91.3975 18.415C91.9553 19.3674 92.2344 20.4501 92.2344 21.6621V22.2588C92.2344 22.4665 92.2174 22.6832 92.1826 22.9082H82.3926C82.4351 23.4559 82.5683 23.9413 82.7949 24.3633C83.0738 24.8652 83.4574 25.2543 83.9453 25.5312C84.4509 25.8083 85.0179 25.9473 85.6455 25.9473C86.2903 25.9472 86.8309 25.8082 87.2666 25.5312C87.7022 25.237 88.0332 24.865 88.2598 24.415H91.8682C91.6067 25.2287 91.1885 25.9732 90.6133 26.6484C90.038 27.3064 89.3319 27.8342 88.4951 28.2324C87.6584 28.6133 86.7168 28.8037 85.6709 28.8037C84.3461 28.8037 83.1691 28.5267 82.1406 27.9727C81.1299 27.4186 80.3369 26.6397 79.7617 25.6357C79.1865 24.6316 78.8985 23.4801 78.8984 22.1816C78.8984 20.8311 79.1775 19.6446 79.7354 18.623C80.3106 17.5842 81.1041 16.7703 82.1152 16.1816C83.1437 15.593 84.3377 15.2988 85.6973 15.2988ZM100.373 15.2988C101.611 15.2988 102.682 15.5064 103.589 15.9219C104.495 16.3201 105.194 16.9174 105.682 17.7139C106.17 18.493 106.413 19.4459 106.413 20.5713V28.4922H103.484L103.093 26.4922H103.04C102.796 26.8558 102.517 27.1851 102.203 27.4795C101.907 27.7738 101.576 28.0166 101.21 28.207C100.844 28.3975 100.443 28.5445 100.007 28.6484C99.571 28.7523 99.1003 28.8037 98.5947 28.8037C97.5488 28.8037 96.6768 28.6315 95.9795 28.2852C95.2996 27.9389 94.7941 27.4705 94.4629 26.8818C94.1493 26.2933 93.9922 25.6442 93.9922 24.9346C93.9922 24.1383 94.193 23.437 94.5938 22.8311C95.0121 22.225 95.6398 21.7567 96.4766 21.4277C97.3133 21.0815 98.3592 20.9082 99.6143 20.9082H102.883C102.883 20.2679 102.787 19.7487 102.596 19.3506C102.421 18.935 102.142 18.6228 101.759 18.415C101.393 18.2073 100.922 18.1035 100.347 18.1035C99.6843 18.1035 99.1092 18.2597 98.6211 18.5713C98.1331 18.8656 97.8361 19.3241 97.7314 19.9473H94.3066C94.3939 18.9951 94.6988 18.173 95.2217 17.4805C95.762 16.788 96.4764 16.251 97.3652 15.8701C98.2543 15.4892 99.2573 15.2988 100.373 15.2988ZM122.566 28.4922H119.532L119.245 26.3887H119.192C118.896 26.8734 118.522 27.2976 118.068 27.6611C117.633 28.0247 117.127 28.3017 116.552 28.4922C115.976 28.7 115.331 28.8037 114.616 28.8037C113.396 28.8036 112.315 28.5095 111.374 27.9209C110.45 27.3322 109.727 26.5355 109.204 25.5312C108.681 24.5098 108.419 23.3501 108.419 22.0518C108.419 20.7531 108.681 19.5929 109.204 18.5713C109.727 17.5497 110.459 16.753 111.4 16.1816C112.342 15.593 113.44 15.2988 114.695 15.2988C115.671 15.2989 116.526 15.4892 117.258 15.8701C118.007 16.2337 118.6 16.7102 119.036 17.2988V10.1045H122.566V28.4922ZM74.374 15.6104H77.8252V18.4668H74.374V23.9473C74.374 24.5531 74.5043 24.9773 74.7656 25.2197C75.0271 25.4448 75.472 25.5576 76.0996 25.5576H77.7471V28.4922H75.4453C74.5215 28.4922 73.7109 28.3542 73.0137 28.0771C72.3338 27.7828 71.8025 27.3064 71.4189 26.6484C71.0354 25.9732 70.8438 25.0556 70.8438 23.8955V18.4668H68.6211V15.6104H70.8438L71.2354 12.1045H74.374V15.6104ZM100.033 23.0645C99.4928 23.0645 99.0479 23.1339 98.6992 23.2725C98.3508 23.3936 98.0983 23.5752 97.9414 23.8174C97.7845 24.0425 97.7061 24.3114 97.7061 24.623C97.7061 24.9345 97.7846 25.2027 97.9414 25.4277C98.1157 25.6527 98.3422 25.8261 98.6211 25.9473C98.9174 26.0511 99.2661 26.1035 99.667 26.1035C100.138 26.1035 100.547 26.0249 100.896 25.8691C101.261 25.6961 101.575 25.4712 101.837 25.1943C102.098 24.9174 102.299 24.5969 102.438 24.2334C102.595 23.8525 102.701 23.4627 102.753 23.0645H100.033ZM115.532 18.2334C114.852 18.2334 114.242 18.3976 113.701 18.7266C113.161 19.0382 112.743 19.4804 112.446 20.0518C112.15 20.6231 112.002 21.2809 112.002 22.0254C112.002 22.7872 112.15 23.454 112.446 24.0254C112.743 24.5967 113.161 25.047 113.701 25.376C114.242 25.6876 114.852 25.8438 115.532 25.8438C116.247 25.8437 116.866 25.6876 117.389 25.376C117.929 25.047 118.347 24.5967 118.644 24.0254C118.957 23.454 119.114 22.7872 119.114 22.0254C119.114 21.2809 118.957 20.6231 118.644 20.0518C118.347 19.4804 117.929 19.0382 117.389 18.7266C116.866 18.3976 116.247 18.2335 115.532 18.2334ZM85.6973 18.1035C85.0872 18.1035 84.529 18.2425 84.0234 18.5195C83.5182 18.7792 83.1175 19.1774 82.8213 19.7139C82.6556 20.0141 82.5379 20.3607 82.4648 20.7529H88.6523C88.6001 19.9566 88.295 19.3158 87.7373 18.8311C87.1969 18.3462 86.5166 18.1035 85.6973 18.1035Z" fill="#141824"/>
<rect width="44" height="44" rx="8" fill="url(#paint0_linear_521_13439)"/>
<path d="M17.27 32.12L27.9125 11.88L38.555 32.12H17.27Z" fill="url(#paint1_linear_521_13439)"/>
<path d="M17.27 32.12L27.9125 11.88L38.555 32.12" stroke="white" stroke-linecap="round" stroke-linejoin="round"/>
<g opacity="0.8">
<path d="M11 32.12L20.02 17.6L29.04 32.12H11Z" fill="url(#paint2_linear_521_13439)"/>
<path d="M11 32.12L20.02 17.6L29.04 32.12" stroke="white" stroke-linecap="round" stroke-linejoin="round"/>
</g>
<g opacity="0.5">
<path d="M5.28027 32.12L12.7603 22L20.2403 32.12H5.28027Z" fill="url(#paint3_linear_521_13439)"/>
<path d="M5.28027 32.12L12.7603 22L20.2403 32.12" stroke="white" stroke-linecap="round" stroke-linejoin="round"/>
</g>
<path opacity="0.6" d="M3.08008 23.3199H40.9201" stroke="white" stroke-dasharray="3 3"/>
<defs>
<linearGradient id="paint0_linear_521_13439" x1="45.8333" y1="31.7778" x2="4.88889" y2="4.88889" gradientUnits="userSpaceOnUse">
<stop stop-color="#2663EB"/>
<stop offset="1" stop-color="#7C3AED"/>
</linearGradient>
<linearGradient id="paint1_linear_521_13439" x1="3.08002" y1="32.12" x2="3.08002" y2="11" gradientUnits="userSpaceOnUse">
<stop stop-color="white" stop-opacity="0.05"/>
<stop offset="1" stop-color="white"/>
</linearGradient>
<linearGradient id="paint2_linear_521_13439" x1="-1.02667" y1="32.12" x2="-1.02667" y2="16.9687" gradientUnits="userSpaceOnUse">
<stop stop-color="white" stop-opacity="0.05"/>
<stop offset="1" stop-color="white"/>
</linearGradient>
<linearGradient id="paint3_linear_521_13439" x1="-4.69306" y1="32.12" x2="-4.69306" y2="21.56" gradientUnits="userSpaceOnUse">
<stop stop-color="white" stop-opacity="0.05"/>
<stop offset="1" stop-color="white"/>
</linearGradient>
</defs>
</svg>
